<?xml version="1.0" encoding="UTF-8"?>
<svg id="Capa_2" data-name="Capa 2" xmlns="http://www.w3.org/2000/svg" viewBox="0 0 705 150">
  <defs>
    <style>
      .cls-1 {
        fill: #1f2670;
      }

      .cls-2 {
        fill: #1e2571;
      }

      .cls-3 {
        fill: #3590d5;
      }
    </style>
  </defs>
  <g>
    <path class="cls-1" d="M248.07,133.12c-3.77,0-7.08-2.73-7.71-6.56-.02-.13-1.2-7.34-3.2-17.89-6.57,3.71-14.18,7.22-22.85,10.53-24.18,9.25-47.8,13.61-48.8,13.79-2.7,.49-5.46-.47-7.27-2.52-1.81-2.06-2.41-4.92-1.59-7.53,.09-.27,8.75-27.53,19.3-54.32,6.26-15.9,11.99-28.58,17.01-37.7,8.09-14.69,14.68-20.77,22.06-20.33,9.35,.55,14.82,11.47,18.93,22.09,3.58,9.24,7.31,21.93,11.07,37.72,.83,3.5,1.63,7,2.39,10.44,2.94-3.76,4.52-7.56,4.65-11.32,.14-4.32,3.76-7.7,8.07-7.55,4.32,.14,7.7,3.76,7.55,8.07-.35,10.55-5.87,20.27-16.46,29.09,2.82,14.29,4.53,24.76,4.56,24.92,.69,4.26-2.2,8.28-6.46,8.97-.42,.07-.85,.1-1.26,.1ZM214.03,27.39c-1.75,1.89-4.96,6.17-9.76,15.61-4.55,8.94-9.7,20.83-15.31,35.33-5.26,13.61-9.94,26.99-13.12,36.38,8.81-2.16,20.98-5.54,33.07-10.18,9.98-3.83,18.36-7.91,25.01-12.14-.96-4.6-2.01-9.41-3.13-14.26-3.3-14.29-6.55-26.08-9.66-35.04-3.22-9.28-5.67-13.68-7.09-15.7Z"/>
    <path class="cls-3" d="M267.68,68.54c.14-4.37-3.17-8.03-7.4-8.17-4.23-.14-7.77,3.28-7.91,7.64-.13,4.01-1.79,8.05-4.89,12.06-1.4-6.55-2.93-13.32-4.56-19.9-1.05-4.23-5.22-6.79-9.32-5.7-4.1,1.08-7.14,5.27-6.09,9.5,2.28,9.21,4.21,19.07,6,27.89-6.67,4.4-14.36,8.49-24.4,12.47-22.81,9.04-45.9,13.46-46.23,13.52-4.16,.78-6.92,4.9-6.16,9.2,.67,3.82,3.9,6.49,7.53,6.49,.46,0,.92-.04,1.38-.13,.99-.19,24.6-4.69,48.77-14.24,8.74-3.45,16.5-5.9,23.11-9.76,2.03,11.01,2.98,17.41,3,17.56,.61,3.88,4.31,7.23,8,7.23,.41,0,.58,.07,1,0,4.18-.7,6.95-5.53,6.27-9.85-.03-.19-1.45-10.47-4.27-25.28,10.61-9.09,15.83-19.68,16.18-30.55Z"/>
  </g>
  <g>
    <path class="cls-2" d="M307.43,99.58c-3.23,0-6.16-.67-8.78-2.01-2.62-1.34-4.65-3.15-6.11-5.42-1.46-2.28-2.18-4.82-2.18-7.63,0-3.62,.87-6.46,2.62-8.54,1.75-2.07,4.69-3.57,8.82-4.47,4.14-.9,9.7-1.36,16.68-1.36h4.56v5.83h-4.36c-4.98,0-8.91,.24-11.78,.7-2.88,.47-4.9,1.29-6.06,2.46-1.16,1.17-1.75,2.8-1.75,4.87,0,2.61,.89,4.76,2.67,6.43,1.78,1.67,4.22,2.51,7.32,2.51,2.46,0,4.62-.62,6.5-1.86,1.88-1.24,3.36-2.91,4.46-5.02,1.1-2.11,1.65-4.54,1.65-7.28v-11.55c0-3.95-.78-6.81-2.33-8.59-1.55-1.77-4.17-2.66-7.85-2.66-2.13,0-4.33,.3-6.59,.9-2.26,.6-4.62,1.54-7.08,2.81-.97,.47-1.81,.62-2.52,.45-.71-.17-1.28-.57-1.7-1.21-.42-.64-.65-1.34-.68-2.11-.03-.77,.13-1.52,.49-2.26,.35-.74,.98-1.27,1.89-1.61,2.84-1.47,5.67-2.53,8.49-3.16,2.81-.64,5.45-.95,7.9-.95,4.2,0,7.66,.69,10.38,2.06,2.71,1.37,4.75,3.48,6.11,6.33,1.36,2.85,2.04,6.48,2.04,10.9v26.52c0,1.54-.36,2.71-1.07,3.52-.71,.8-1.75,1.21-3.1,1.21s-2.31-.4-3.05-1.21c-.74-.8-1.12-1.97-1.12-3.52v-7.13h.87c-.52,2.48-1.49,4.62-2.91,6.43-1.42,1.81-3.19,3.2-5.29,4.17-2.1,.97-4.48,1.46-7.13,1.46Z"/>
    <path class="cls-2" d="M365.33,117.66c-3.49,0-6.87-.4-10.13-1.21-3.26-.8-6.22-2.04-8.87-3.72-.84-.54-1.41-1.16-1.7-1.86-.29-.7-.36-1.42-.19-2.16,.16-.74,.48-1.39,.97-1.96,.48-.57,1.07-.94,1.75-1.1,.68-.17,1.37-.02,2.08,.45,2.84,1.67,5.56,2.81,8.15,3.42,2.58,.6,5.04,.9,7.37,.9,4.59,0,8.03-1.22,10.33-3.67,2.29-2.45,3.44-6.01,3.44-10.7v-10.85h.87c-.91,3.75-2.93,6.73-6.06,8.94-3.14,2.21-6.77,3.31-10.91,3.31s-7.99-1.02-11.15-3.06c-3.17-2.04-5.62-4.89-7.37-8.54-1.75-3.65-2.62-7.88-2.62-12.71,0-3.68,.5-7.01,1.5-9.99,1-2.98,2.42-5.52,4.27-7.63s4.06-3.75,6.64-4.92c2.58-1.17,5.49-1.76,8.73-1.76,4.2,0,7.86,1.1,10.96,3.31,3.1,2.21,5.11,5.19,6.01,8.94l-1.07,1.41v-8.84c0-1.54,.39-2.69,1.16-3.47,.78-.77,1.88-1.16,3.3-1.16s2.42,.39,3.2,1.16c.78,.77,1.16,1.93,1.16,3.47v41.18c0,7.57-1.86,13.26-5.58,17.08-3.72,3.82-9.13,5.73-16.24,5.73Zm-.97-27.42c2.91,0,5.41-.69,7.52-2.06,2.1-1.37,3.72-3.35,4.85-5.93,1.13-2.58,1.7-5.61,1.7-9.09,0-5.29-1.26-9.46-3.78-12.51-2.52-3.05-5.95-4.57-10.28-4.57-2.91,0-5.42,.69-7.52,2.06-2.1,1.37-3.73,3.33-4.9,5.88-1.16,2.55-1.75,5.59-1.75,9.14,0,5.22,1.28,9.38,3.83,12.46,2.55,3.08,6,4.62,10.33,4.62Z"/>
    <path class="cls-2" d="M405.67,38.41c-1.75,0-3.12-.48-4.12-1.46-1-.97-1.5-2.26-1.5-3.87,0-1.74,.5-3.06,1.5-3.97,1-.9,2.38-1.36,4.12-1.36,1.87,0,3.28,.45,4.22,1.36,.94,.9,1.41,2.23,1.41,3.97,0,1.61-.47,2.9-1.41,3.87-.94,.97-2.34,1.46-4.22,1.46Zm0,60.77c-1.36,0-2.42-.44-3.2-1.31-.78-.87-1.16-2.07-1.16-3.62V54.18c0-1.61,.39-2.83,1.16-3.67,.78-.84,1.84-1.26,3.2-1.26s2.52,.42,3.3,1.26c.78,.84,1.16,2.06,1.16,3.67v40.08c0,1.54-.37,2.75-1.12,3.62-.74,.87-1.86,1.31-3.35,1.31Z"/>
    <path class="cls-2" d="M439.12,99.58c-4.85,0-8.53-1.49-11.05-4.47-2.52-2.98-3.78-7.28-3.78-12.91V31.78c0-1.54,.39-2.69,1.16-3.47,.78-.77,1.84-1.15,3.2-1.15s2.52,.39,3.3,1.15c.78,.77,1.16,1.93,1.16,3.47v49.72c0,3.48,.69,6.08,2.08,7.78,1.39,1.71,3.38,2.56,5.96,2.56,.58,0,1.1-.02,1.55-.05,.45-.03,.9-.08,1.36-.15,.71-.07,1.23,.14,1.55,.6,.32,.47,.48,1.41,.48,2.81,0,1.27-.28,2.26-.82,2.96-.55,.7-1.44,1.16-2.67,1.36-.58,.07-1.16,.12-1.75,.15-.58,.03-1.16,.05-1.75,.05Z"/>
    <path class="cls-2" d="M474.81,99.58c-5.11,0-9.49-1.02-13.14-3.06-3.65-2.04-6.48-4.95-8.49-8.74-2-3.78-3.01-8.25-3.01-13.41s.99-9.54,2.96-13.36c1.97-3.82,4.69-6.8,8.15-8.94,3.46-2.14,7.42-3.21,11.88-3.21,3.17,0,6.03,.55,8.58,1.66,2.55,1.1,4.74,2.7,6.55,4.77,1.81,2.08,3.18,4.6,4.12,7.58,.94,2.98,1.41,6.35,1.41,10.09,0,1.07-.31,1.89-.92,2.46-.62,.57-1.5,.85-2.67,.85h-33.17v-5.83h30.93l-1.65,1.41c0-3.48-.5-6.44-1.5-8.89-1-2.44-2.46-4.3-4.36-5.57-1.91-1.27-4.28-1.91-7.13-1.91-3.1,0-5.75,.75-7.95,2.26-2.2,1.51-3.88,3.62-5.04,6.33-1.16,2.71-1.75,5.84-1.75,9.39v.6c0,6.03,1.39,10.58,4.17,13.66,2.78,3.08,6.79,4.62,12.02,4.62,2.07,0,4.19-.27,6.35-.8,2.17-.54,4.25-1.51,6.25-2.91,.97-.6,1.86-.89,2.67-.85,.81,.03,1.47,.3,1.99,.8,.52,.5,.84,1.1,.97,1.81,.13,.7,.03,1.46-.29,2.26-.32,.8-.94,1.51-1.84,2.11-2.13,1.54-4.67,2.73-7.61,3.57-2.94,.84-5.77,1.26-8.49,1.26Z"/>
    <path class="cls-3" d="M505.36,99.28c-.97,0-1.81-.3-2.52-.9-.71-.6-1.08-1.41-1.12-2.41-.03-1,.37-2.07,1.21-3.21l16.78-21.6v4.52l-15.71-20.09c-.91-1.14-1.33-2.21-1.26-3.21,.06-1,.44-1.81,1.12-2.41,.68-.6,1.54-.9,2.57-.9,1.1,0,2.02,.2,2.76,.6,.74,.4,1.44,1.04,2.08,1.91l13.38,17.58h-3.1l13.38-17.58c.65-.87,1.34-1.51,2.08-1.91,.74-.4,1.63-.6,2.67-.6s1.89,.3,2.57,.9c.68,.6,1.03,1.41,1.07,2.41,.03,1-.37,2.08-1.21,3.21l-15.61,19.89v-4.02l16.68,21.29c.9,1.07,1.32,2.11,1.26,3.11-.07,1-.44,1.83-1.12,2.46s-1.54,.95-2.57,.95c-1.1,0-2.02-.2-2.76-.6s-1.44-1.04-2.08-1.91l-14.45-18.78h3.01l-14.26,18.78c-.65,.8-1.34,1.42-2.08,1.86-.74,.43-1.67,.65-2.76,.65Z"/>
  </g>
</svg>