<svg xmlns="http://www.w3.org/2000/svg" width="94" height="40" viewBox="0 0 94 40" fill="none"><path d="M0.911497 24.278C0.316337 22.8017 0.00698951 21.2252 5.89589e-08 19.6328C-8.69683e-05 18.7289 0.0961696 17.8276 0.287124 16.9443C0.926349 17.7128 1.72663 18.3305 2.63096 18.7533C3.53528 19.1761 4.5214 19.3936 5.51911 19.3904H5.76067C5.76067 19.4682 5.76067 19.5505 5.76067 19.6282C5.75867 20.6293 5.9765 21.6187 6.3987 22.5258C6.82089 23.433 7.43708 24.2357 8.20347 24.877C7.32141 25.0683 6.42155 25.1649 5.51911 25.165C3.94135 25.1622 2.37824 24.8613 0.911497 24.278Z" fill="#31822C"></path><path d="M24.2003 24.278C24.7798 22.7987 25.0737 21.2223 25.0662 19.6328C25.0663 18.7289 24.97 17.8276 24.7791 16.9443C24.1453 17.7063 23.353 18.3201 22.4579 18.7426C21.5628 19.1652 20.5865 19.3863 19.5972 19.3904H19.3556C19.3556 19.4682 19.3556 19.5505 19.3556 19.6282C19.3553 20.6317 19.1336 21.6227 18.7065 22.5301C18.2795 23.4376 17.6576 24.239 16.8855 24.877C17.7691 25.0683 18.6705 25.1648 19.5744 25.165C21.1583 25.1641 22.7277 24.8631 24.2003 24.278Z" fill="#1679A3"></path><path d="M5.75609 19.3904V19.4178H5.51453C4.51836 19.4182 3.53435 19.1984 2.63245 18.7741C1.73054 18.3497 0.9329 17.7312 0.296234 16.9626C0.636285 15.4039 1.27054 13.9249 2.16479 12.6053C2.65584 13.3287 3.21934 13.9997 3.8465 14.6079C4.04149 14.8111 4.2658 14.9837 4.51191 15.12C4.58864 15.1627 4.66775 15.2008 4.74888 15.2343L4.98131 15.3212H5.01778L5.24109 15.3806H5.30034L5.52365 15.4172H5.58747C5.68773 15.4172 5.78342 15.4172 5.88369 15.4172C6.613 15.4174 7.31513 15.1395 7.84796 14.6399C7.1926 15.2451 6.66862 15.9792 6.3087 16.7965C5.94878 17.6139 5.76067 18.4969 5.75609 19.3904Z" fill="#2AB0B7"></path><path d="M19.3329 19.3904V19.4178H19.5972C20.5941 19.4186 21.5789 19.1989 22.4816 18.7746C23.3843 18.3502 24.1827 17.7316 24.8201 16.9626C24.478 15.4045 23.8439 13.9259 22.9515 12.6053C22.4591 13.3276 21.8957 13.9985 21.2698 14.6079C21.0739 14.81 20.8498 14.9825 20.6044 15.12C20.5277 15.1627 20.4485 15.2008 20.3674 15.2343L20.135 15.3212H20.094L19.8706 15.3806H19.816L19.5926 15.4172H19.5243C19.4286 15.4172 19.3283 15.4172 19.2281 15.4172C18.5002 15.4167 17.7998 15.1389 17.2683 14.6399C17.9196 15.2468 18.4391 15.9819 18.7943 16.7992C19.1495 17.6166 19.3329 18.4987 19.3329 19.3904Z" fill="#2AB0B7"></path><path d="M0.911497 0.89615C0.316369 2.37086 0.00701142 3.9459 0 5.53687C0.000178475 6.44221 0.0964302 7.34496 0.287124 8.22986C0.924259 7.46028 1.72252 6.84092 2.6252 6.41579C3.52787 5.99066 4.51281 5.77019 5.51001 5.77005H5.75154C5.75154 5.68775 5.75154 5.61003 5.75154 5.52773C5.75271 4.52881 5.97298 3.5424 6.39672 2.63845C6.82047 1.73451 7.4373 0.93519 8.20347 0.297201C7.32141 0.105894 6.42155 0.00933432 5.51911 0.00915527C3.94114 0.00978427 2.37762 0.310772 0.911497 0.89615Z" fill="#747521"></path><path d="M5.78346 19.3905H5.76067C5.76067 19.4682 5.76067 19.5505 5.76067 19.6328C5.75809 20.6334 5.97569 21.6223 6.39795 22.5288C6.82022 23.4353 7.43672 24.2371 8.20348 24.8771C9.75692 24.5351 11.2311 23.8988 12.5468 23.0025C11.8235 22.5111 11.1529 21.9457 10.546 21.3154C10.3414 21.1194 10.1664 20.8945 10.0265 20.6478C9.98545 20.5747 9.94899 20.4924 9.91253 20.4101C9.87821 20.3345 9.84927 20.2566 9.82594 20.1769V20.1403C9.82594 20.0672 9.78492 19.9894 9.76213 19.9163C9.73934 19.8431 9.76213 19.8797 9.76213 19.8614C9.74554 19.786 9.73339 19.7097 9.72569 19.6328C9.72378 19.6115 9.72378 19.5901 9.72569 19.5688C9.71875 19.4699 9.71875 19.3706 9.72569 19.2716C9.72492 18.539 10.0038 17.8339 10.505 17.301C9.90243 17.9549 9.17247 18.4778 8.36031 18.8372C7.54815 19.1966 6.6711 19.3849 5.78346 19.3905Z" fill="#F3AB00"></path><path d="M5.78347 5.77911H5.76069C5.76069 5.69682 5.76069 5.61909 5.76069 5.53679C5.7594 4.53706 5.97761 3.54931 6.3998 2.64373C6.822 1.73816 7.43781 0.936975 8.20349 0.297119C9.75693 0.639124 11.2311 1.27536 12.5468 2.1717C11.8252 2.66016 11.1548 3.22083 10.546 3.8451C10.3417 4.04649 10.1668 4.27584 10.0265 4.52635C9.98547 4.60408 9.94901 4.6818 9.91255 4.7641C9.8797 4.84028 9.8508 4.91811 9.82595 4.99728V5.03843C9.82595 5.11158 9.78493 5.18474 9.76214 5.26246C9.73936 5.34019 9.76214 5.29904 9.76214 5.31733C9.7452 5.39114 9.73304 5.46598 9.7257 5.54136C9.72348 5.56417 9.72348 5.58714 9.7257 5.60995C9.71876 5.70889 9.71876 5.80819 9.7257 5.90713C9.72564 6.63828 10.0045 7.34173 10.505 7.87315C9.91272 7.21982 9.19372 6.69467 8.39203 6.32988C7.59034 5.96509 6.72286 5.76834 5.84272 5.75168" fill="#F3AB00"></path><path d="M15.0397 20.6478C15.0807 20.5701 15.1218 20.4878 15.1582 20.41C15.1901 20.3369 15.2175 20.2592 15.2448 20.1769V20.1403C15.2676 20.0671 15.2858 19.9894 15.3041 19.9162C15.302 19.898 15.302 19.8796 15.3041 19.8614C15.3041 19.7837 15.304 19.7105 15.3405 19.6328C15.377 19.555 15.3405 19.5916 15.3405 19.5688C15.3405 19.4727 15.3405 19.3722 15.3405 19.2716C15.3559 18.8833 15.293 18.496 15.1556 18.1328C15.0181 17.7695 14.8089 17.4379 14.5406 17.1577C14.2722 16.8776 13.9502 16.6547 13.5939 16.5025C13.2376 16.3502 12.8543 16.2717 12.467 16.2717C12.0797 16.2717 11.6964 16.3502 11.3401 16.5025C10.9838 16.6547 10.6618 16.8776 10.3935 17.1577C10.1251 17.4379 9.91594 17.7695 9.77848 18.1328C9.64102 18.496 9.57811 18.8833 9.59352 19.2716C9.58658 19.3705 9.58658 19.4698 9.59352 19.5688C9.59352 19.5688 9.59352 19.6008 9.59352 19.6145C9.60275 19.6975 9.61646 19.7799 9.63455 19.8614C9.63242 19.875 9.63242 19.8889 9.63455 19.9025C9.65098 19.983 9.6723 20.0624 9.69836 20.1403C9.69836 20.1403 9.69836 20.1403 9.69836 20.1677C9.72398 20.2502 9.75439 20.3311 9.78949 20.41C9.9404 20.7538 10.1572 21.0645 10.4276 21.3245C11.0331 21.9531 11.7021 22.5169 12.4237 23.007C13.1436 22.5146 13.8123 21.9509 14.4199 21.3245C14.6609 21.1332 14.8701 20.9048 15.0397 20.6478Z" fill="#D91101"></path><path d="M15.4043 5.63291C15.4043 5.63291 15.4043 5.58719 15.4043 5.56432C15.4043 5.54146 15.4043 5.41344 15.3678 5.34029V5.28543C15.3678 5.2077 15.3314 5.13454 15.3086 5.06139V5.02024C15.2813 4.94251 15.2539 4.86479 15.222 4.78706C15.1855 4.70476 15.1445 4.62704 15.1035 4.54931C14.9559 4.28572 14.7665 4.04792 14.5429 3.8452C13.9374 3.21514 13.2685 2.64975 12.5468 2.15808C11.8251 2.64975 11.1561 3.21514 10.5506 3.8452C10.2802 4.10513 10.0634 4.41582 9.91253 4.75963C9.88062 4.83735 9.84871 4.91965 9.82137 5.00195C9.82137 5.00195 9.82137 5.00195 9.82137 5.02938C9.79586 5.10743 9.77455 5.18679 9.75756 5.26714V5.31286C9.75756 5.39516 9.73023 5.47745 9.72112 5.55975C9.71865 5.57489 9.71865 5.59033 9.72112 5.60547C9.72112 5.70149 9.72112 5.80208 9.72112 5.90266C9.75069 6.64735 10.0664 7.35166 10.602 7.86805C11.1377 8.38445 11.8517 8.67286 12.5946 8.67286C13.3375 8.67286 14.0515 8.38445 14.5872 7.86805C15.1229 7.35166 15.4385 6.64735 15.4681 5.90266C15.4681 5.80208 15.4681 5.70149 15.4681 5.60547" fill="#D91101"></path><path d="M24.2002 0.896144C24.7798 2.37392 25.0736 3.94885 25.0662 5.53687C25.066 6.44221 24.9697 7.34496 24.779 8.22986C24.1463 7.46559 23.3547 6.84941 22.4595 6.42449C21.5644 5.99957 20.5874 5.7762 19.5972 5.77005H19.3556C19.3556 5.68775 19.3556 5.61002 19.3556 5.52772C19.3567 4.52711 19.1376 3.5386 18.7137 2.63283C18.2898 1.72706 17.6718 0.926396 16.9037 0.28805C17.7873 0.0967626 18.6887 0.000205188 19.5926 4.5519e-06C21.1767 -0.0013501 22.7466 0.299667 24.2185 0.886999" fill="#AC6C33"></path><path d="M19.3055 19.3905H19.3328C19.3328 19.4682 19.3328 19.5505 19.3328 19.6328C19.3354 20.6334 19.1178 21.6223 18.6955 22.5288C18.2733 23.4353 17.6568 24.2371 16.89 24.8771C15.3363 24.5359 13.862 23.8996 12.5468 23.0025C13.2695 22.5122 13.9386 21.9467 14.5429 21.3154C14.7408 21.119 14.9083 20.894 15.0397 20.6478C15.0807 20.5747 15.1217 20.4924 15.1582 20.4101C15.1901 20.3369 15.2174 20.2592 15.2448 20.1769V20.1403C15.2676 20.0672 15.2858 19.9894 15.304 19.9163V19.8614C15.304 19.7837 15.3314 19.7105 15.3405 19.6328C15.3496 19.5551 15.3405 19.5871 15.3405 19.5688C15.3405 19.4728 15.3405 19.3722 15.3405 19.2716C15.3406 18.54 15.0637 17.8356 14.5657 17.301C15.1702 17.9574 15.9031 18.4817 16.7186 18.8412C17.5341 19.2007 18.4147 19.3877 19.3055 19.3905Z" fill="#E66B5E"></path><path d="M19.3055 5.77911H19.3328C19.3328 5.69682 19.3328 5.61909 19.3328 5.53679C19.3336 4.5367 19.1147 3.54872 18.6917 2.64312C18.2687 1.73752 17.652 0.936535 16.8855 0.297119C15.3318 0.638264 13.8575 1.27457 12.5422 2.1717C13.2649 2.65879 13.9353 3.21958 14.5429 3.8451C14.7406 4.04678 14.908 4.27627 15.0397 4.52635C15.0807 4.60408 15.1217 4.6818 15.1582 4.7641C15.1901 4.84183 15.2174 4.91955 15.2448 4.99728V5.03843C15.2676 5.11158 15.2858 5.18474 15.304 5.26246V5.31733C15.304 5.39048 15.3314 5.46364 15.3405 5.54136C15.3496 5.61909 15.3405 5.58708 15.3405 5.60995C15.3405 5.70596 15.3405 5.80655 15.3405 5.90713C15.3399 6.6373 15.063 7.34002 14.5657 7.87315C15.1573 7.22016 15.8756 6.6952 16.6765 6.33041C17.4774 5.96562 18.3441 5.76869 19.2235 5.75168" fill="#E66B5E"></path><path d="M5.75609 5.80204V5.77917H5.51453C4.51821 5.78061 3.53438 6.00169 2.63264 6.42675C1.7309 6.85181 0.933293 7.47048 0.296234 8.23899C0.637994 9.79715 1.27211 11.2759 2.16479 12.5962C2.6546 11.8706 3.2182 11.1979 3.8465 10.5891C4.04149 10.3859 4.2658 10.2133 4.51191 10.077C4.58854 10.0328 4.66765 9.99309 4.74888 9.95811C4.82481 9.92516 4.9024 9.89616 4.98131 9.87124H5.01778C5.09103 9.84717 5.16558 9.82732 5.24109 9.8118H5.30034C5.37392 9.7948 5.44851 9.78259 5.52365 9.77523H5.58747C5.68773 9.77523 5.78342 9.77523 5.88369 9.77523C6.613 9.77506 7.31513 10.0529 7.84796 10.5525C7.19798 9.95727 6.67536 9.23574 6.31184 8.4317C5.94832 7.62766 5.75151 6.75788 5.73331 5.87519" fill="#96C000"></path><path d="M19.3329 5.80204V5.77917H19.5744C20.5715 5.78026 21.5561 6.00115 22.4586 6.42621C23.3611 6.85128 24.1595 7.47013 24.7973 8.23899C24.4535 9.7965 23.8195 11.2748 22.9287 12.5962C22.4375 11.8716 21.874 11.1991 21.247 10.5891C21.0511 10.387 20.8269 10.2145 20.5816 10.077C20.505 10.0328 20.4259 9.99309 20.3446 9.95811C20.2687 9.92516 20.1911 9.89616 20.1122 9.87124H20.0712C19.9981 9.84661 19.9235 9.82676 19.8478 9.8118H19.7932C19.7195 9.79517 19.6449 9.78296 19.5698 9.77523H19.5015C19.4058 9.77523 19.3055 9.77523 19.2053 9.77523C18.4774 9.77577 17.777 10.0536 17.2455 10.5525C17.8964 9.95795 18.4195 9.23656 18.7831 8.43237C19.1467 7.62817 19.3431 6.75807 19.3602 5.87519" fill="#96C000"></path><path d="M5.92475 9.70212C5.82449 9.70212 5.72421 9.70212 5.6285 9.70212H5.56016C5.48506 9.70985 5.41049 9.72206 5.33684 9.73869H5.28216C5.20652 9.75365 5.1319 9.7735 5.05882 9.79813H5.02238C4.94171 9.82229 4.86257 9.8513 4.78538 9.885C4.7079 9.92158 4.62586 9.95816 4.54838 10.0039C4.3019 10.1415 4.07758 10.3157 3.88301 10.5205C3.25497 11.128 2.69139 11.7991 2.20129 12.5231C2.69374 13.2454 3.25712 13.9163 3.88301 14.5257C4.07893 14.7278 4.30305 14.9003 4.54838 15.0378L4.78538 15.1567L5.01782 15.2436H5.05882L5.28216 15.303H5.33684L5.56016 15.3396H5.6285C5.72421 15.3396 5.82449 15.3396 5.92475 15.3396C6.66705 15.3099 7.36911 14.9932 7.88385 14.4558C8.39859 13.9185 8.68606 13.2021 8.68606 12.4568C8.68606 11.7116 8.39859 10.9952 7.88385 10.4578C7.36911 9.92045 6.66705 9.60376 5.92475 9.5741" fill="#488627"></path><path d="M22.9241 12.5871C22.4354 11.8621 21.8717 11.1908 21.2424 10.5845C21.0491 10.3815 20.8263 10.2089 20.5816 10.0725C20.5065 10.0283 20.4289 9.98862 20.3492 9.95358L20.1213 9.86671H20.0803L19.8251 9.78899C19.8054 9.7864 19.7855 9.7864 19.7658 9.78899C19.6938 9.77199 19.6207 9.75977 19.5471 9.75241H19.4787C19.383 9.75241 19.2827 9.75241 19.1825 9.75241C18.7955 9.73694 18.4094 9.80006 18.0473 9.93796C17.6852 10.0759 17.3546 10.2857 17.0754 10.5549C16.7961 10.8241 16.574 11.1472 16.4222 11.5046C16.2705 11.8621 16.1922 12.2466 16.1922 12.6351C16.1922 13.0237 16.2705 13.4082 16.4222 13.7657C16.574 14.1231 16.7961 14.4462 17.0754 14.7154C17.3546 14.9846 17.6852 15.1944 18.0473 15.3323C18.4094 15.4702 18.7955 15.5333 19.1825 15.5179C19.2827 15.5179 19.383 15.5179 19.4787 15.5179H19.5471L19.7658 15.4813H19.8251L20.0484 15.4219H20.0894L20.3173 15.335C20.3974 15.3025 20.475 15.2643 20.5497 15.2207C20.7944 15.0843 21.0172 14.9117 21.2105 14.7086C21.835 14.0991 22.3968 13.4282 22.8877 12.706" fill="#488627"></path><path d="M37.9547 33.1846C37.9547 33.01 38.0239 32.8425 38.147 32.719C38.27 32.5956 38.4369 32.5262 38.611 32.5262C38.785 32.5262 38.952 32.5956 39.0751 32.719C39.1981 32.8425 39.2673 33.01 39.2673 33.1846V33.4041H39.2901C39.3944 33.1432 39.5716 32.918 39.8004 32.7558C40.0292 32.5936 40.2999 32.5012 40.5798 32.4896C40.7708 32.4896 40.954 32.5657 41.089 32.7012C41.2241 32.8367 41.2999 33.0204 41.2999 33.212C41.2999 33.4036 41.2241 33.5874 41.089 33.7228C40.954 33.8583 40.7708 33.9344 40.5798 33.9344C40.1605 33.9344 39.4131 33.747 39.4131 35.553V37.2538C39.3986 37.4372 39.3158 37.6085 39.181 37.7333C39.0463 37.8582 38.8696 37.9275 38.6862 37.9275C38.5028 37.9275 38.3261 37.8582 38.1914 37.7333C38.0567 37.6085 37.9738 37.4372 37.9593 37.2538L37.9547 33.1846Z" fill="white"></path><path d="M45.6022 34.6797C45.5698 34.3651 45.4233 34.0734 45.1905 33.8601C44.9578 33.6469 44.655 33.5268 44.3398 33.5229C44.0114 33.5188 43.6925 33.6335 43.4415 33.8459C43.1904 34.0583 43.0239 34.3543 42.9725 34.6797H45.6022ZM43.0956 35.5209C43.0835 35.6984 43.1094 35.8764 43.1715 36.043C43.2336 36.2096 43.3305 36.3609 43.4556 36.4869C43.5808 36.6129 43.7313 36.7106 43.8971 36.7735C44.063 36.8363 44.2403 36.8629 44.4173 36.8514C45.4974 36.8514 45.4974 36.1336 46.0716 36.1336C46.2233 36.1346 46.3689 36.194 46.4783 36.2995C46.5877 36.4049 46.6525 36.5485 46.6595 36.7005C46.6595 37.583 45.2923 37.9899 44.4173 37.9899C42.4165 37.9899 41.6828 36.6183 41.6828 35.3426C41.6828 33.6418 42.69 32.4988 44.3854 32.4988C44.711 32.4822 45.0366 32.5314 45.3429 32.6435C45.6492 32.7556 45.9299 32.9282 46.1684 33.1513C46.4069 33.3743 46.5983 33.6432 46.7312 33.9419C46.8641 34.2405 46.9358 34.563 46.9421 34.89C46.9421 35.3929 46.7917 35.5209 46.3132 35.5209H43.0956Z" fill="white"></path><path d="M50.5242 36.8514C51.4129 36.8514 51.691 35.9827 51.691 35.2329C51.691 34.4008 51.3719 33.6418 50.5242 33.6418C49.6765 33.6418 49.3712 34.3733 49.3712 35.2329C49.3712 35.9096 49.5991 36.8514 50.5242 36.8514ZM53.0673 39.2015C53.0673 39.3955 52.9905 39.5816 52.8537 39.7188C52.717 39.856 52.5315 39.9331 52.3381 39.9331C52.1447 39.9331 51.9593 39.856 51.8225 39.7188C51.6857 39.5816 51.6089 39.3955 51.6089 39.2015V37.2492C51.461 37.4935 51.2486 37.6919 50.9952 37.8226C50.7419 37.9533 50.4574 38.0112 50.1733 37.9899C48.642 37.9899 47.931 36.6823 47.931 35.2832C47.931 33.3903 48.9975 32.5033 50.2098 32.5033C50.5291 32.4747 50.8492 32.5476 51.1249 32.7117C51.4006 32.8759 51.6177 33.1229 51.7456 33.4178V33.1892C51.732 33.0981 51.7392 33.0051 51.7669 32.9173C51.7945 32.8295 51.8418 32.7493 51.9051 32.6826C51.9685 32.616 52.0462 32.5648 52.1323 32.5329C52.2184 32.501 52.3106 32.4894 52.4019 32.4988C52.8577 32.4988 53.0628 32.7365 53.0628 33.1892L53.0673 39.2015Z" fill="white"></path><path d="M67.4508 35.2329C67.4508 34.3733 67.0725 33.6601 66.2977 33.6418C65.45 33.6418 65.1265 34.4008 65.1265 35.2329C65.1265 35.9827 65.409 36.8606 66.2977 36.8514C67.1864 36.8423 67.4508 35.9096 67.4508 35.2329ZM63.7547 33.1937C63.7547 32.7365 63.9643 32.4988 64.4109 32.4988C64.5025 32.4901 64.5948 32.5025 64.6808 32.5349C64.7669 32.5674 64.8445 32.619 64.9077 32.686C64.971 32.7529 65.0182 32.8334 65.0458 32.9214C65.0734 33.0094 65.0808 33.1025 65.0672 33.1937V33.4223H65.09C65.2173 33.127 65.4344 32.8796 65.7102 32.7154C65.986 32.5512 66.3065 32.4786 66.6259 32.5079C67.8382 32.5079 68.9046 33.4223 68.9046 35.2923C68.9046 36.6914 68.1937 37.999 66.6623 37.999C66.3776 38.0202 66.0926 37.9623 65.8386 37.8316C65.5845 37.701 65.3712 37.5026 65.2222 37.2584V39.2107C65.2301 39.3113 65.2172 39.4125 65.1843 39.5078C65.1514 39.6032 65.0991 39.6907 65.0308 39.7649C64.9626 39.839 64.8797 39.8982 64.7876 39.9386C64.6954 39.9791 64.5959 40 64.4953 40C64.3946 40 64.2951 39.9791 64.2029 39.9386C64.1108 39.8982 64.0279 39.839 63.9597 39.7649C63.8914 39.6907 63.8391 39.6032 63.8062 39.5078C63.7733 39.4125 63.7604 39.3113 63.7683 39.2107L63.7547 33.1937Z" fill="white"></path><path d="M59.2108 37.2629C59.2108 37.7201 59.0103 37.9899 58.5545 37.9899C58.0988 37.9899 57.8937 37.7019 57.8937 37.2629V37.0709C57.6982 37.358 57.4347 37.5918 57.1269 37.7514C56.819 37.911 56.4764 37.9914 56.13 37.9853C55.2504 37.9853 54.307 37.5281 54.307 36.065V33.2257C54.299 33.1251 54.3119 33.0239 54.3449 32.9285C54.3778 32.8332 54.43 32.7457 54.4983 32.6715C54.5666 32.5974 54.6494 32.5382 54.7416 32.4978C54.8337 32.4573 54.9333 32.4364 55.0339 32.4364C55.1345 32.4364 55.234 32.4573 55.3262 32.4978C55.4184 32.5382 55.5012 32.5974 55.5695 32.6715C55.6378 32.7457 55.69 32.8332 55.7229 32.9285C55.7559 33.0239 55.7688 33.1251 55.7608 33.2257V35.777C55.7608 36.3668 56.0479 36.7874 56.6723 36.7874C56.9709 36.7802 57.2546 36.6552 57.4619 36.4395C57.6693 36.2239 57.7835 35.9349 57.7798 35.6352V33.2257C57.7718 33.1251 57.7847 33.0239 57.8177 32.9285C57.8506 32.8332 57.9028 32.7457 57.9711 32.6715C58.0394 32.5974 58.1222 32.5382 58.2144 32.4978C58.3065 32.4573 58.4061 32.4364 58.5067 32.4364C58.6073 32.4364 58.7068 32.4573 58.799 32.4978C58.8912 32.5382 58.974 32.5974 59.0423 32.6715C59.1106 32.7457 59.1628 32.8332 59.1957 32.9285C59.2287 33.0239 59.2416 33.1251 59.2336 33.2257L59.2108 37.2629Z" fill="white"></path><path d="M35.2066 35.2969C34.9227 35.484 34.5934 35.5899 34.2541 35.6033C33.7208 35.6947 33.3426 35.8913 33.3426 36.3302C33.3426 36.7691 33.7983 36.9337 34.1493 36.9337C34.2911 36.9438 34.4334 36.9233 34.5668 36.8737C34.7001 36.8241 34.8213 36.7464 34.9223 36.646C35.0232 36.5456 35.1017 36.4246 35.1523 36.2913C35.2029 36.158 35.2245 36.0154 35.2157 35.873L35.2066 35.2969ZM36.5738 36.4765C36.5738 37.0892 36.6285 37.4687 36.6285 37.6973C36.6285 37.9259 36.4098 37.9899 36.0634 38.0173C35.864 38.0153 35.6729 37.9371 35.5289 37.7986C35.385 37.6602 35.2991 37.4719 35.2886 37.2721C34.482 38.438 31.8705 38.2917 31.8705 36.4628C31.8705 35.1918 32.937 34.858 34.4637 34.7574C34.9559 34.7254 35.202 34.6157 35.202 34.195C35.202 33.7744 34.7736 33.5778 34.2905 33.5961C33.3152 33.6281 33.3791 34.3962 32.823 34.3962C32.7453 34.4011 32.6674 34.3904 32.5938 34.3646C32.5203 34.3389 32.4526 34.2986 32.3949 34.2462C32.3371 34.1938 32.2904 34.1303 32.2575 34.0595C32.2246 33.9886 32.2061 33.9119 32.2032 33.8338C32.2032 33.2532 32.9005 32.4896 34.3953 32.4896C35.7945 32.4896 36.5921 32.9468 36.5921 34.0121L36.5738 36.4765Z" fill="white"></path><path d="M72.9471 35.2969C72.6632 35.484 72.3339 35.5899 71.9946 35.6033C71.4568 35.6947 71.0831 35.8913 71.0831 36.3302C71.0831 36.7691 71.5388 36.9337 71.8943 36.9337C72.036 36.943 72.178 36.922 72.311 36.8721C72.444 36.8223 72.5649 36.7446 72.6657 36.6443C72.7665 36.544 72.8449 36.4234 72.8958 36.2905C72.9467 36.1575 72.9688 36.0152 72.9608 35.873L72.9471 35.2969ZM74.3143 36.4765C74.3143 37.0892 74.3736 37.4687 74.3736 37.6973C74.3736 37.9259 74.1548 37.9899 73.8039 38.0173C73.6048 38.0142 73.4143 37.9356 73.2706 37.7974C73.1269 37.6592 73.0406 37.4715 73.0291 37.2721C72.2225 38.438 69.611 38.2917 69.611 36.4628C69.611 35.1918 70.6775 34.858 72.2042 34.7574C72.6919 34.7254 72.9425 34.6157 72.9425 34.195C72.9425 33.7744 72.5141 33.5778 72.031 33.5961C71.0557 33.6281 71.1423 34.3962 70.5635 34.3962C70.4858 34.4011 70.4079 34.3904 70.3343 34.3646C70.2608 34.3389 70.1932 34.2986 70.1354 34.2462C70.0776 34.1938 70.0309 34.1303 69.998 34.0595C69.9651 33.9886 69.9466 33.9119 69.9437 33.8338C69.9437 33.2532 70.641 32.4896 72.1359 32.4896C73.535 32.4896 74.328 32.9468 74.328 34.0121L74.3143 36.4765Z" fill="white"></path><path d="M40.4157 25.165C38.8772 25.1629 37.3632 24.7785 36.0089 24.0462C34.6546 23.3139 33.5021 22.2565 32.6544 20.9684C31.8068 19.6804 31.2904 18.2017 31.1513 16.6646C31.0121 15.1274 31.2547 13.5797 31.8572 12.1595C32.4598 10.7393 33.4036 9.49101 34.6043 8.52599C35.805 7.56098 37.2253 6.90933 38.7383 6.62926C40.2512 6.34919 41.8098 6.44942 43.2747 6.92099C44.7397 7.39256 46.0654 8.22079 47.1335 9.3317C47.3388 9.53019 47.502 9.7682 47.6135 10.0315C47.7249 10.2948 47.7823 10.5779 47.7821 10.8639C47.7819 11.15 47.7242 11.433 47.6124 11.6962C47.5006 11.9593 47.337 12.1971 47.1314 12.3953C46.9259 12.5935 46.6826 12.7481 46.416 12.8498C46.1495 12.9514 45.8653 12.9981 45.5804 12.987C45.2955 12.9758 45.0158 12.9071 44.758 12.785C44.5002 12.6629 44.2695 12.4898 44.0799 12.2762C43.3774 11.5435 42.4725 11.0382 41.4815 10.8254C40.4905 10.6126 39.4587 10.7019 38.5187 11.0819C37.5787 11.4618 36.7734 12.1151 36.2063 12.9577C35.6392 13.8003 35.3362 14.7937 35.3362 15.8104C35.3362 16.8271 35.6392 17.8206 36.2063 18.6632C36.7734 19.5058 37.5787 20.159 38.5187 20.539C39.4587 20.9189 40.4905 21.0082 41.4815 20.7954C42.4725 20.5826 43.3774 20.0774 44.0799 19.3447C44.2695 19.131 44.5002 18.958 44.758 18.8358C45.0158 18.7137 45.2955 18.645 45.5804 18.6339C45.8653 18.6228 46.1495 18.6694 46.416 18.7711C46.6826 18.8727 46.9259 19.0273 47.1314 19.2255C47.337 19.4238 47.5006 19.6615 47.6124 19.9247C47.7242 20.1878 47.7819 20.4709 47.7821 20.7569C47.7823 21.0429 47.7249 21.3261 47.6135 21.5894C47.502 21.8526 47.3388 22.0907 47.1335 22.2891C46.2661 23.1991 45.2232 23.9225 44.0684 24.4153C42.9135 24.9082 41.6707 25.1601 40.4157 25.1559" fill="white"></path><path d="M61.0156 16.0574C60.4824 16.5603 59.6028 16.7752 57.8254 17.077C56.0479 17.3787 54.7445 18.0371 54.7445 19.5093C54.7445 20.9084 56.3123 21.5256 57.4562 21.5256C59.5937 21.5256 61.0247 20.1174 61.0247 17.9685L61.0156 16.0574ZM65.6506 20.0031C65.6506 22.0514 65.8465 23.3225 65.8465 24.1181C65.8465 24.7947 65.0581 25.1376 63.9415 25.1925C63.604 25.2067 63.2672 25.1521 62.9514 25.032C62.6356 24.9119 62.3473 24.7288 62.104 24.4937C61.8608 24.2587 61.6676 23.9765 61.5361 23.6644C61.4046 23.3523 61.3377 23.0167 61.3392 22.6778C61.3392 22.6047 61.3392 22.6504 61.3027 22.7144C58.6092 26.6282 49.8589 26.1344 49.8589 20.0077C49.8589 15.7419 53.4319 14.6309 58.5409 14.2971C60.1861 14.1919 61.0156 13.8399 61.0156 12.4134C61.0156 10.9869 59.5754 10.3422 57.9393 10.3971C54.6853 10.5159 54.9678 13.0809 53.0309 13.0809C52.7714 13.0982 52.5112 13.0631 52.2655 12.9775C52.0198 12.892 51.7938 12.7578 51.6008 12.583C51.4078 12.4081 51.2518 12.1962 51.1421 11.9597C51.0323 11.7232 50.971 11.467 50.9618 11.2063C50.9618 9.2586 53.2861 6.71191 58.2993 6.71191C62.9799 6.71191 65.6506 8.28473 65.6506 11.8053V20.0031Z" fill="white"></path><path d="M88.4152 16.0574C87.882 16.5603 87.0024 16.7752 85.225 17.077C83.4475 17.3787 82.1395 18.0371 82.1395 19.5093C82.1395 20.9084 83.7073 21.5256 84.8512 21.5256C86.9887 21.5256 88.4198 20.1174 88.4198 17.9685L88.4152 16.0574ZM93.0501 20.0031C93.0501 22.0514 93.2461 23.3225 93.2461 24.1181C93.2461 24.7947 92.4577 25.1376 91.3457 25.1925C91.008 25.2067 90.671 25.1521 90.3549 25.0321C90.0388 24.912 89.7503 24.729 89.5066 24.494C89.263 24.259 89.0694 23.9769 88.9374 23.6647C88.8054 23.3526 88.7379 23.0169 88.7388 22.6778C88.7388 22.6047 88.7388 22.6504 88.7023 22.7144C86.0134 26.6282 77.2585 26.1344 77.2585 20.0077C77.2585 15.7419 80.8316 14.6309 85.945 14.2971C87.5857 14.1919 88.4152 13.8399 88.4152 12.4134C88.4152 10.9869 86.9796 10.3422 85.3435 10.3971C82.0849 10.5159 82.372 13.0809 80.4305 13.0809C80.171 13.0982 79.9108 13.0631 79.6651 12.9775C79.4194 12.892 79.1934 12.7578 79.0004 12.583C78.8074 12.4081 78.6514 12.1962 78.5417 11.9597C78.4319 11.7232 78.3706 11.467 78.3614 11.2063C78.3614 9.2586 80.6857 6.71191 85.6989 6.71191C90.3795 6.71191 93.0501 8.28473 93.0501 11.8053V20.0031Z" fill="white"></path><path d="M71.8897 0.00915527C72.4171 0.00915527 72.9325 0.166023 73.371 0.459923C73.8094 0.753823 74.1512 1.17156 74.3529 1.66029C74.5547 2.14903 74.6075 2.68683 74.5047 3.20567C74.4018 3.72451 74.1479 4.20109 73.775 4.57516C73.4021 4.94922 72.9271 5.20396 72.4099 5.30717C71.8927 5.41037 71.3566 5.3574 70.8695 5.15496C70.3823 4.95252 69.9659 4.60969 69.673 4.16984C69.38 3.72999 69.2236 3.21286 69.2236 2.68386C69.2236 1.97448 69.5045 1.29416 70.0045 0.792557C70.5045 0.290953 71.1826 0.00915527 71.8897 0.00915527Z" fill="white"></path><path d="M71.8852 6.88562C69.9392 6.88562 69.3558 7.99665 69.3558 9.45059V9.49631V23.926C69.3558 27.4602 67.2229 26.5275 66.9449 27.666C66.553 29.2708 68.2028 29.8606 69.2556 29.8469C72.742 29.8149 74.3918 26.9207 74.3918 23.958V9.47802C74.3918 8.02408 73.8313 6.88562 71.8898 6.88562" fill="white"></path><path d="M61.526 32.4987C61.4252 32.4846 61.3224 32.4944 61.226 32.5273C61.1296 32.5602 61.0422 32.6153 60.9709 32.6882C60.8996 32.7611 60.8463 32.8498 60.8152 32.9471C60.7842 33.0444 60.7764 33.1476 60.7923 33.2485V37.2217C60.7923 37.6469 60.9518 37.9761 61.5215 37.9761C61.6222 37.9909 61.7251 37.9817 61.8217 37.9494C61.9183 37.9171 62.006 37.8625 62.0777 37.79C62.1495 37.7176 62.2034 37.6293 62.235 37.5322C62.2666 37.4351 62.2751 37.3319 62.2598 37.2309V33.2623C62.2763 33.1608 62.269 33.057 62.2383 32.9589C62.2077 32.8609 62.1546 32.7714 62.0832 32.6976C62.0119 32.6238 61.9244 32.5678 61.8276 32.5341C61.7309 32.5004 61.6276 32.4898 61.526 32.5033" fill="white"></path><path d="M61.5261 30.4688C61.682 30.4688 61.8344 30.5152 61.9641 30.6021C62.0937 30.689 62.1948 30.8125 62.2545 30.957C62.3142 31.1016 62.3298 31.2606 62.2994 31.4141C62.2689 31.5675 62.1938 31.7084 62.0836 31.8191C61.9733 31.9297 61.8328 32.005 61.6799 32.0355C61.5269 32.066 61.3684 32.0504 61.2243 31.9905C61.0803 31.9306 60.9571 31.8293 60.8705 31.6992C60.7839 31.5691 60.7376 31.4162 60.7376 31.2597C60.737 31.1557 60.757 31.0526 60.7964 30.9563C60.8358 30.8601 60.8939 30.7727 60.9672 30.6991C61.0405 30.6255 61.1277 30.5673 61.2236 30.5277C61.3195 30.4882 61.4223 30.4682 61.5261 30.4688Z" fill="white"></path></svg>