<?xml version="1.0" encoding="UTF-8"?>
<svg id="Capa_1" data-name="Capa 1" xmlns="http://www.w3.org/2000/svg" viewBox="0 0 128 128">
  <defs>
    <style>
      .cls-1 {
        fill: #1e2571;
      }

      .cls-2 {
        fill: #3590d5;
      }
    </style>
  </defs>
  <path class="cls-1" d="M32.92,99.85c2.84-8.3,6.69-19.2,10.97-30.25,5.11-13.23,9.81-24.07,13.96-32.22,4.38-8.6,7.31-12.51,8.9-14.23,1.29,1.84,3.53,5.86,6.47,14.32,1.89,5.46,3.85,12.07,5.83,19.74-.02-3.13,2.08-5.99,5.25-6.8,3.74-.96,7.54,1.3,8.5,5.03,1.41,5.51-4.61-19.05-7.87-27.47-3.75-9.68-8.74-19.64-17.27-20.14-6.73-.4-12.74,5.15-20.12,18.55-4.58,8.32-9.8,19.88-15.51,34.38-6.88,17.47-12.88,35.15-15.77,43.91"/>
  <path class="cls-2" d="M115.39,61.94c.13-3.86-2.89-7.09-6.75-7.21-3.86-.12-7.09,2.89-7.21,6.75-.12,3.62-1.71,7.28-4.66,10.9-1.22-5.5-2.55-11.15-3.96-16.66-.96-3.74-4.76-5.99-8.5-5.03-3.74,.96-5.99,4.76-5.03,8.5,1.99,7.78,3.82,15.85,5.4,23.35-6.05,3.83-13.65,7.53-22.7,11-20.8,7.98-41.86,11.88-42.16,11.94-3.79,.69-6.31,4.33-5.62,8.12,.61,3.37,3.55,5.73,6.86,5.73,.42,0,.84-.04,1.26-.11,.91-.17,22.44-4.14,44.48-12.57,7.88-3.01,14.81-6.21,20.79-9.58,1.97,10.29,3.14,17.42,3.16,17.57,.56,3.43,3.52,5.86,6.89,5.86,.37,0,.75-.03,1.13-.09,3.81-.62,6.39-4.21,5.77-8.02-.03-.17-1.67-10.23-4.37-23.81,9.8-8.07,14.9-16.98,15.23-26.64Z"/>
</svg>